<?xml version="1.0" encoding="UTF-8"?>
<svg xmlns="http://www.w3.org/2000/svg"
     viewBox="0 0 400 400"
     width="400"
     height="400">
  <path fill="#e6e6e6" fill-rule="evenodd"
        d="M 225.000,229.242 C 224.756,229.242 224.083,229.253 223.750,229.000 C 223.417,228.747 223.285,228.226 223.000,227.726 C 222.715,227.226 222.311,226.454 222.041,226.000 C 221.771,225.546 221.554,225.359 221.380,225.000 C 221.207,224.641 221.210,224.343 221.000,223.843 C 220.790,223.343 220.375,222.474 220.118,222.000 C 219.861,221.526 219.643,221.442 219.457,221.000 C 219.271,220.558 219.209,219.848 219.000,219.348 C 218.791,218.848 218.372,218.394 218.206,218.000 C 218.039,217.606 218.193,217.481 218.000,216.981 C 217.807,216.481 217.344,215.497 217.047,215.000 C 216.750,214.503 216.393,214.388 216.219,214.000 C 216.044,213.612 216.132,213.173 216.000,212.673 C 215.868,212.173 215.394,211.446 215.429,211.000 C 215.463,210.554 215.944,210.407 216.205,210.000 C 216.467,209.593 216.814,209.060 217.000,208.560 C 217.186,208.060 217.153,207.427 217.323,207.000 C 217.493,206.573 217.860,206.500 218.020,206.000 C 218.180,205.500 218.120,204.634 218.283,204.000 C 218.446,203.366 218.856,202.694 219.000,202.194 C 219.144,201.694 219.095,201.532 219.148,201.000 C 219.201,200.468 219.227,199.667 219.316,199.000 C 219.405,198.333 219.569,197.667 219.683,197.000 C 219.797,196.333 219.946,195.667 220.000,195.000 C 220.054,194.333 220.032,193.500 220.005,193.000 C 219.978,192.500 219.857,192.500 219.839,192.000 C 219.821,191.500 219.933,190.667 219.897,190.000 C 219.860,189.333 219.728,188.667 219.622,188.000 C 219.516,187.333 219.338,186.667 219.260,186.000 C 219.182,185.333 219.199,184.657 219.155,184.000 C 219.112,183.343 219.112,182.556 219.000,182.056 C 218.888,181.556 218.621,181.509 218.484,181.000 C 218.346,180.491 218.255,179.551 218.175,179.000 C 218.094,178.449 218.154,178.194 218.000,177.694 C 217.846,177.194 217.419,176.560 217.252,176.000 C 217.086,175.440 217.170,174.833 217.000,174.333 C 216.830,173.833 216.402,173.440 216.235,173.000 C 216.069,172.560 216.171,172.190 216.000,171.690 C 215.829,171.190 215.374,170.481 215.207,170.000 C 215.041,169.519 215.189,169.304 215.000,168.804 C 214.811,168.304 214.333,167.467 214.072,167.000 C 213.811,166.533 213.611,166.377 213.432,166.000 C 213.254,165.623 213.218,165.237 213.000,164.737 C 212.782,164.237 212.379,163.456 212.127,163.000 C 211.875,162.544 211.675,162.379 211.487,162.000 C 211.299,161.621 211.247,161.227 211.000,160.727 C 210.753,160.227 210.319,159.455 210.007,159.000 C 209.695,158.545 209.363,158.333 209.127,158.000 C 208.890,157.667 208.774,157.355 208.586,157.000 C 208.398,156.645 208.264,156.224 208.000,155.867 C 207.736,155.511 207.326,155.339 207.000,154.861 C 206.674,154.383 206.365,153.477 206.045,153.000 C 205.726,152.523 205.399,152.333 205.082,152.000 C 204.766,151.667 204.433,151.333 204.148,151.000 C 203.862,150.667 203.642,150.333 203.371,150.000 C 203.100,149.667 202.750,149.337 202.522,149.000 C 202.293,148.663 202.254,148.328 202.000,147.979 C 201.746,147.630 201.333,147.251 201.000,146.905 C 200.667,146.560 200.333,146.252 200.000,145.904 C 199.667,145.556 199.333,145.179 199.000,144.817 C 198.667,144.455 198.333,144.069 198.000,143.732 C 197.667,143.395 197.333,143.117 197.000,142.795 C 196.667,142.473 196.333,142.129 196.000,141.800 C 195.667,141.471 195.333,141.142 195.000,140.821 C 194.667,140.500 194.333,140.185 194.000,139.872 C 193.667,139.559 193.333,139.258 193.000,138.944 C 192.667,138.631 192.402,138.316 192.000,137.992 C 191.598,137.668 191.055,137.332 190.591,137.000 C 190.127,136.668 189.610,136.333 189.214,136.000 C 188.819,135.667 188.565,135.333 188.218,135.000 C 187.872,134.667 187.506,134.307 187.136,134.000 C 186.767,133.693 186.356,133.370 186.000,133.158 C 185.644,132.945 185.333,132.942 185.000,132.725 C 184.667,132.508 184.333,132.152 184.000,131.853 C 183.667,131.555 183.402,131.244 183.000,130.935 C 182.598,130.626 182.059,130.322 181.591,130.000 C 181.123,129.678 180.624,129.306 180.192,129.000 C 179.760,128.694 179.365,128.387 179.000,128.167 C 178.635,127.947 178.333,127.904 178.000,127.680 C 177.667,127.456 177.333,127.112 177.000,126.824 C 176.667,126.535 176.417,126.256 176.000,125.952 C 175.583,125.648 174.998,125.325 174.500,125.000 C 174.002,124.675 173.429,124.224 173.012,124.000 C 172.596,123.776 172.335,123.856 172.000,123.657 C 171.665,123.458 171.333,123.093 171.000,122.806 C 170.667,122.520 170.435,122.238 170.000,121.937 C 169.565,121.636 168.866,121.323 168.387,121.000 C 167.908,120.677 167.525,120.255 167.127,120.000 C 166.729,119.745 166.354,119.676 166.000,119.471 C 165.646,119.265 165.333,119.028 165.000,118.768 C 164.667,118.508 164.370,118.206 164.000,117.912 C 163.630,117.617 163.231,117.319 162.778,117.000 C 162.325,116.681 161.736,116.333 161.283,116.000 C 160.829,115.667 160.437,115.250 160.057,115.000 C 159.676,114.750 159.343,114.690 159.000,114.500 C 158.657,114.310 158.333,114.127 158.000,113.857 C 157.667,113.588 157.333,113.206 157.000,112.884 C 156.667,112.561 156.417,112.238 156.000,111.924 C 155.583,111.610 154.933,111.321 154.500,111.000 C 154.067,110.679 153.743,110.333 153.400,110.000 C 153.057,109.667 152.806,109.333 152.441,109.000 C 152.076,108.667 151.590,108.333 151.208,108.000 C 150.826,107.667 150.489,107.333 150.149,107.000 C 149.809,106.667 149.512,106.333 149.169,106.000 C 148.825,105.667 148.432,105.333 148.088,105.000 C 147.743,104.667 147.417,104.333 147.103,104.000 C 146.790,103.667 146.530,103.333 146.207,103.000 C 145.885,102.667 145.504,102.333 145.169,102.000 C 144.835,101.667 144.478,101.333 144.200,101.000 C 143.922,100.667 143.759,100.333 143.500,100.000 C 143.241,99.667 142.897,99.347 142.647,99.000 C 142.397,98.653 142.275,98.300 142.000,97.920 C 141.725,97.539 141.327,97.205 141.000,96.718 C 140.673,96.231 140.341,95.453 140.038,95.000 C 139.735,94.547 139.458,94.333 139.183,94.000 C 138.909,93.667 138.589,93.362 138.391,93.000 C 138.194,92.638 138.211,92.326 138.000,91.826 C 137.789,91.326 137.397,90.471 137.127,90.000 C 136.858,89.529 136.573,89.432 136.385,89.000 C 136.197,88.568 136.192,87.906 136.000,87.406 C 135.808,86.906 135.397,86.512 135.231,86.000 C 135.064,85.488 135.145,84.833 135.000,84.333 C 134.855,83.833 134.504,83.556 134.360,83.000 C 134.216,82.444 134.196,81.639 134.136,81.000 C 134.076,80.361 134.085,79.667 134.000,79.167 C 133.915,78.667 133.727,78.528 133.625,78.000 C 133.523,77.472 133.434,76.667 133.390,76.000 C 133.346,75.333 133.355,74.667 133.361,74.000 C 133.368,73.333 133.322,72.616 133.429,72.000 C 133.535,71.384 133.884,70.804 134.000,70.304 C 134.116,69.804 134.077,69.551 134.124,69.000 C 134.170,68.449 134.132,67.562 134.278,67.000 C 134.424,66.438 134.829,66.125 135.000,65.625 C 135.171,65.125 135.131,64.438 135.303,64.000 C 135.475,63.562 135.750,63.499 136.033,63.000 C 136.316,62.501 136.799,61.509 137.000,61.009 C 137.201,60.509 137.048,60.335 137.238,60.000 C 137.429,59.665 137.849,59.402 138.143,59.000 C 138.437,58.598 138.690,58.043 139.000,57.588 C 139.310,57.133 139.667,56.670 140.000,56.270 C 140.333,55.870 140.667,55.539 141.000,55.188 C 141.333,54.836 141.667,54.521 142.000,54.163 C 142.333,53.805 142.667,53.390 143.000,53.041 C 143.333,52.692 143.667,52.384 144.000,52.070 C 144.333,51.756 144.667,51.470 145.000,51.156 C 145.333,50.842 145.667,50.505 146.000,50.185 C 146.333,49.866 146.667,49.535 147.000,49.240 C 147.333,48.945 147.656,48.623 148.000,48.417 C 148.344,48.210 148.665,48.236 149.062,48.000 C 149.459,47.764 149.890,47.319 150.380,47.000 C 150.869,46.681 151.563,46.382 152.000,46.085 C 152.437,45.788 152.667,45.430 153.000,45.217 C 153.333,45.005 153.579,45.014 154.000,44.811 C 154.421,44.608 155.026,44.273 155.526,44.000 C 156.026,43.727 156.588,43.396 157.000,43.171 C 157.412,42.947 157.500,42.837 158.000,42.652 C 158.500,42.467 159.500,42.282 160.000,42.060 C 160.500,41.838 160.572,41.496 161.000,41.319 C 161.428,41.142 162.066,41.181 162.566,41.000 C 163.066,40.819 163.490,40.401 164.000,40.234 C 164.510,40.068 165.125,40.160 165.625,40.000 C 166.125,39.840 166.438,39.422 167.000,39.275 C 167.562,39.128 168.500,39.186 169.000,39.117 C 169.500,39.047 169.500,39.004 170.000,38.857 C 170.500,38.710 171.333,38.356 172.000,38.236 C 172.667,38.117 173.333,38.174 174.000,38.141 C 174.667,38.108 175.500,38.130 176.000,38.038 C 176.500,37.945 176.500,37.698 177.000,37.588 C 177.500,37.479 178.333,37.428 179.000,37.380 C 179.667,37.332 180.333,37.308 181.000,37.300 C 181.667,37.292 182.333,37.316 183.000,37.333 C 183.667,37.351 184.333,37.309 185.000,37.405 C 185.667,37.501 186.500,37.789 187.000,37.909 C 187.500,38.030 187.500,38.078 188.000,38.128 C 188.500,38.178 189.333,38.143 190.000,38.207 C 190.667,38.270 191.500,38.368 192.000,38.508 C 192.500,38.649 192.500,38.931 193.000,39.052 C 193.500,39.173 194.406,39.078 195.000,39.236 C 195.594,39.394 196.066,39.839 196.566,40.000 C 197.066,40.161 197.511,40.035 198.000,40.201 C 198.489,40.368 199.000,40.823 199.500,41.000 C 200.000,41.177 200.583,41.092 201.000,41.265 C 201.417,41.439 201.514,41.753 202.000,42.042 C 202.486,42.332 203.416,42.799 203.916,43.000 C 204.416,43.201 204.653,43.066 205.000,43.246 C 205.347,43.426 205.555,43.789 206.000,44.081 C 206.445,44.374 207.170,44.686 207.670,45.000 C 208.170,45.314 208.612,45.748 209.000,45.968 C 209.388,46.188 209.667,46.111 210.000,46.319 C 210.333,46.528 210.667,46.910 211.000,47.219 C 211.333,47.528 211.667,47.850 212.000,48.172 C 212.333,48.495 212.667,48.822 213.000,49.156 C 213.333,49.490 213.667,49.836 214.000,50.175 C 214.333,50.514 214.667,50.839 215.000,51.190 C 215.333,51.541 215.667,51.870 216.000,52.280 C 216.333,52.691 216.689,53.199 217.000,53.652 C 217.311,54.105 217.574,54.609 217.866,55.000 C 218.159,55.391 218.560,55.667 218.754,56.000 C 218.948,56.333 218.825,56.510 219.032,57.000 C 219.240,57.490 219.710,58.438 220.000,58.938 C 220.290,59.438 220.606,59.632 220.773,60.000 C 220.939,60.368 220.821,60.645 221.000,61.145 C 221.179,61.645 221.610,62.524 221.844,63.000 C 222.077,63.476 222.222,63.500 222.400,64.000 C 222.578,64.500 222.688,65.500 222.910,66.000 C 223.133,66.500 223.553,66.657 223.735,67.000 C 223.916,67.343 223.789,67.678 224.000,68.057 C 224.211,68.435 224.667,68.862 225.000,69.270 C 225.333,69.679 225.667,70.141 226.000,70.508 C 226.333,70.876 226.667,71.167 227.000,71.476 C 227.333,71.786 227.667,72.014 228.000,72.366 C 228.333,72.718 228.833,73.191 229.000,73.588 C 229.167,73.986 229.167,74.434 229.000,74.750 C 228.833,75.066 228.500,75.337 228.000,75.481 C 227.500,75.626 226.667,75.592 226.000,75.615 C 225.333,75.638 224.667,75.621 224.000,75.619 C 223.333,75.618 222.667,75.611 222.000,75.607 C 221.333,75.602 220.667,75.590 220.000,75.590 C 219.333,75.590 218.667,75.604 218.000,75.607 C 217.333,75.609 216.667,75.585 216.000,75.603 C 215.333,75.621 214.611,75.815 214.000,75.714 C 213.389,75.614 212.500,75.413 212.333,75.000 C 212.167,74.587 212.722,73.697 213.000,73.236 C 213.278,72.776 213.667,72.593 214.000,72.236 C 214.333,71.879 214.787,71.467 215.000,71.095 C 215.213,70.722 215.111,70.378 215.278,70.000 C 215.444,69.622 215.857,69.326 216.000,68.826 C 216.143,68.326 216.117,67.638 216.135,67.000 C 216.154,66.362 216.131,65.554 216.108,65.000 C 216.086,64.446 216.148,64.179 216.000,63.679 C 215.852,63.179 215.384,62.464 215.218,62.000 C 215.051,61.536 215.194,61.393 215.000,60.893 C 214.806,60.393 214.364,59.482 214.055,59.000 C 213.745,58.518 213.385,58.333 213.143,58.000 C 212.900,57.667 212.790,57.354 212.600,57.000 C 212.410,56.646 212.267,56.220 212.000,55.875 C 211.733,55.530 211.333,55.264 211.000,54.932 C 210.667,54.601 210.333,54.253 210.000,53.887 C 209.667,53.522 209.333,53.076 209.000,52.739 C 208.667,52.402 208.333,52.170 208.000,51.866 C 207.667,51.562 207.333,51.229 207.000,50.916 C 206.667,50.603 206.455,50.306 206.000,49.986 C 205.545,49.667 204.768,49.331 204.273,49.000 C 203.777,48.669 203.406,48.196 203.027,48.000 C 202.649,47.804 202.338,47.998 202.000,47.825 C 201.662,47.653 201.490,47.267 201.000,46.963 C 200.510,46.658 199.562,46.188 199.062,46.000 C 198.562,45.812 198.431,46.002 198.000,45.836 C 197.569,45.669 196.976,45.181 196.476,45.000 C 195.976,44.819 195.462,44.917 195.000,44.750 C 194.538,44.583 194.206,44.163 193.706,44.000 C 193.206,43.837 192.618,43.890 192.000,43.774 C 191.382,43.658 190.500,43.435 190.000,43.303 C 189.500,43.171 189.500,43.056 189.000,42.980 C 188.500,42.903 187.667,42.887 187.000,42.845 C 186.333,42.802 185.667,42.756 185.000,42.725 C 184.333,42.693 183.667,42.666 183.000,42.654 C 182.333,42.641 181.667,42.633 181.000,42.650 C 180.333,42.667 179.667,42.717 179.000,42.753 C 178.333,42.789 177.650,42.826 177.000,42.867 C 176.350,42.908 175.600,42.913 175.100,43.000 C 174.600,43.087 174.517,43.253 174.000,43.390 C 173.483,43.527 172.535,43.722 172.000,43.824 C 171.465,43.925 171.288,43.838 170.788,44.000 C 170.288,44.162 169.482,44.631 169.000,44.798 C 168.518,44.965 168.397,44.813 167.897,45.000 C 167.397,45.187 166.483,45.630 166.000,45.922 C 165.517,46.213 165.333,46.538 165.000,46.750 C 164.667,46.962 164.379,46.984 164.000,47.192 C 163.621,47.401 163.137,47.699 162.726,48.000 C 162.316,48.301 161.937,48.667 161.538,49.000 C 161.140,49.333 160.650,49.667 160.333,50.000 C 160.017,50.333 159.897,50.667 159.639,51.000 C 159.380,51.333 159.080,51.667 158.781,52.000 C 158.482,52.333 158.141,52.593 157.845,53.000 C 157.548,53.407 157.209,53.944 157.000,54.444 C 156.791,54.944 156.778,55.574 156.589,56.000 C 156.400,56.426 156.008,56.500 155.864,57.000 C 155.721,57.500 155.850,58.333 155.730,59.000 C 155.609,59.667 155.268,60.500 155.143,61.000 C 155.018,61.500 155.008,61.500 154.981,62.000 C 154.954,62.500 154.912,63.333 154.982,64.000 C 155.051,64.667 155.266,65.333 155.400,66.000 C 155.534,66.667 155.690,67.333 155.787,68.000 C 155.885,68.667 155.835,69.500 155.986,70.000 C 156.136,70.500 156.523,70.500 156.691,71.000 C 156.858,71.500 156.811,72.500 156.991,73.000 C 157.170,73.500 157.599,73.639 157.767,74.000 C 157.936,74.361 157.796,74.665 158.000,75.165 C 158.204,75.665 158.689,76.528 158.991,77.000 C 159.293,77.472 159.544,77.667 159.812,78.000 C 160.081,78.333 160.402,78.651 160.600,79.000 C 160.798,79.349 160.767,79.721 161.000,80.097 C 161.233,80.472 161.667,80.880 162.000,81.254 C 162.333,81.628 162.667,81.968 163.000,82.341 C 163.333,82.714 163.667,83.107 164.000,83.492 C 164.333,83.877 164.667,84.292 165.000,84.652 C 165.333,85.012 165.667,85.319 166.000,85.652 C 166.333,85.986 166.667,86.344 167.000,86.652 C 167.333,86.960 167.667,87.214 168.000,87.500 C 168.333,87.786 168.667,88.073 169.000,88.370 C 169.333,88.668 169.667,88.976 170.000,89.286 C 170.333,89.595 170.667,89.914 171.000,90.229 C 171.333,90.544 171.667,90.861 172.000,91.179 C 172.333,91.496 172.616,91.831 173.000,92.135 C 173.384,92.439 173.862,92.689 174.302,93.000 C 174.743,93.311 175.225,93.667 175.643,94.000 C 176.060,94.333 176.415,94.754 176.808,95.000 C 177.201,95.246 177.635,95.269 178.000,95.476 C 178.365,95.684 178.667,95.964 179.000,96.244 C 179.333,96.524 179.632,96.863 180.000,97.155 C 180.368,97.448 180.754,97.693 181.211,98.000 C 181.667,98.307 182.280,98.667 182.741,99.000 C 183.203,99.333 183.603,99.779 183.980,100.000 C 184.356,100.221 184.663,100.128 185.000,100.326 C 185.337,100.524 185.667,100.892 186.000,101.189 C 186.333,101.485 186.588,101.805 187.000,102.107 C 187.412,102.409 188.012,102.684 188.474,103.000 C 188.936,103.316 189.352,103.694 189.773,104.000 C 190.194,104.306 190.629,104.615 191.000,104.833 C 191.371,105.052 191.667,105.088 192.000,105.312 C 192.333,105.537 192.667,105.887 193.000,106.182 C 193.333,106.477 193.568,106.778 194.000,107.081 C 194.432,107.384 195.135,107.680 195.595,108.000 C 196.054,108.320 196.368,108.667 196.756,109.000 C 197.145,109.333 197.552,109.737 197.926,110.000 C 198.300,110.263 198.654,110.357 199.000,110.577 C 199.346,110.797 199.667,111.046 200.000,111.319 C 200.333,111.593 200.667,111.910 201.000,112.217 C 201.333,112.525 201.667,112.856 202.000,113.162 C 202.333,113.468 202.594,113.747 203.000,114.053 C 203.406,114.360 203.992,114.676 204.434,115.000 C 204.876,115.324 205.266,115.667 205.651,116.000 C 206.036,116.333 206.386,116.667 206.746,117.000 C 207.106,117.333 207.462,117.667 207.812,118.000 C 208.163,118.333 208.507,118.667 208.850,119.000 C 209.193,119.333 209.514,119.667 209.869,120.000 C 210.223,120.333 210.622,120.690 210.978,121.000 C 211.333,121.310 211.665,121.524 212.000,121.857 C 212.335,122.190 212.651,122.674 212.985,123.000 C 213.318,123.326 213.664,123.528 214.000,123.811 C 214.336,124.094 214.667,124.338 215.000,124.698 C 215.333,125.057 215.675,125.584 216.000,125.968 C 216.325,126.351 216.629,126.661 216.948,127.000 C 217.267,127.339 217.597,127.667 217.913,128.000 C 218.229,128.333 218.523,128.667 218.843,129.000 C 219.163,129.333 219.506,129.667 219.831,130.000 C 220.155,130.333 220.477,130.667 220.789,131.000 C 221.100,131.333 221.412,131.667 221.700,132.000 C 221.988,132.333 222.299,132.659 222.516,133.000 C 222.733,133.341 222.753,133.670 223.000,134.043 C 223.247,134.416 223.667,134.847 224.000,135.238 C 224.333,135.629 224.674,135.929 225.000,136.390 C 225.326,136.850 225.652,137.565 225.958,138.000 C 226.263,138.435 226.538,138.667 226.832,139.000 C 227.127,139.333 227.500,139.667 227.722,140.000 C 227.945,140.333 227.954,140.618 228.167,141.000 C 228.380,141.382 228.705,141.791 229.000,142.291 C 229.295,142.791 229.640,143.549 229.939,144.000 C 230.239,144.451 230.547,144.667 230.796,145.000 C 231.045,145.333 231.233,145.606 231.434,146.000 C 231.635,146.394 231.759,146.866 232.000,147.366 C 232.241,147.866 232.593,148.561 232.879,149.000 C 233.164,149.439 233.525,149.625 233.712,150.000 C 233.898,150.375 233.808,150.750 234.000,151.250 C 234.192,151.750 234.594,152.542 234.861,153.000 C 235.127,153.458 235.410,153.524 235.600,154.000 C 235.790,154.476 235.811,155.357 236.000,155.857 C 236.189,156.357 236.570,156.561 236.737,157.000 C 236.904,157.439 236.823,157.992 237.000,158.492 C 237.177,158.992 237.635,159.540 237.801,160.000 C 237.968,160.460 237.832,160.750 238.000,161.250 C 238.168,161.750 238.643,162.462 238.810,163.000 C 238.977,163.538 238.851,163.976 239.000,164.476 C 239.149,164.976 239.550,165.413 239.706,166.000 C 239.862,166.587 239.815,167.500 239.934,168.000 C 240.054,168.500 240.279,168.500 240.423,169.000 C 240.567,169.500 240.717,170.333 240.799,171.000 C 240.880,171.667 240.873,172.500 240.912,173.000 C 240.951,173.500 240.905,173.500 241.032,174.000 C 241.160,174.500 241.546,175.333 241.677,176.000 C 241.809,176.667 241.795,177.333 241.824,178.000 C 241.852,178.667 241.836,179.333 241.851,180.000 C 241.866,180.667 241.894,181.333 241.913,182.000 C 241.932,182.667 241.965,183.333 241.966,184.000 C 241.967,184.667 241.936,185.333 241.917,186.000 C 241.899,186.667 241.869,187.333 241.856,188.000 C 241.843,188.667 241.854,189.333 241.840,190.000 C 241.825,190.667 241.801,191.333 241.769,192.000 C 241.738,192.667 241.779,193.397 241.651,194.000 C 241.523,194.603 241.132,195.115 241.000,195.615 C 240.868,196.115 240.901,196.436 240.861,197.000 C 240.821,197.564 240.904,198.400 240.760,199.000 C 240.616,199.600 240.155,200.100 240.000,200.600 C 239.845,201.100 239.953,201.433 239.828,202.000 C 239.703,202.567 239.413,203.500 239.250,204.000 C 239.087,204.500 238.990,204.500 238.852,205.000 C 238.714,205.500 238.586,206.500 238.423,207.000 C 238.260,207.500 238.065,207.500 237.875,208.000 C 237.685,208.500 237.458,209.500 237.286,210.000 C 237.113,210.500 237.055,210.559 236.840,211.000 C 236.626,211.441 236.186,212.146 236.000,212.646 C 235.814,213.146 235.905,213.608 235.727,214.000 C 235.550,214.392 235.222,214.529 234.934,215.000 C 234.646,215.471 234.209,216.326 234.000,216.826 C 233.791,217.326 233.871,217.638 233.677,218.000 C 233.484,218.362 233.118,218.611 232.839,219.000 C 232.559,219.389 232.306,219.876 232.000,220.333 C 231.694,220.791 231.318,221.301 231.000,221.746 C 230.682,222.190 230.311,222.624 230.091,223.000 C 229.870,223.376 229.892,223.667 229.677,224.000 C 229.463,224.333 229.109,224.667 228.804,225.000 C 228.499,225.333 228.266,225.500 227.847,226.000 C 227.429,226.500 226.731,227.500 226.293,228.000 C 225.854,228.500 225.432,228.793 225.216,229.000 C 225.001,229.207 225.244,229.242 225.000,229.242 Z M 316.000,332.087 C 315.667,332.167 314.667,332.474 314.000,332.568 C 313.333,332.663 312.667,332.630 312.000,332.655 C 311.333,332.679 310.667,332.696 310.000,332.716 C 309.333,332.737 308.667,332.771 308.000,332.777 C 307.333,332.782 306.667,332.760 306.000,332.750 C 305.333,332.740 304.667,332.724 304.000,332.720 C 303.333,332.715 302.667,332.741 302.000,332.725 C 301.333,332.708 300.667,332.711 300.000,332.623 C 299.333,332.534 298.500,332.300 298.000,332.192 C 297.500,332.085 297.500,332.026 297.000,331.976 C 296.500,331.926 295.667,331.935 295.000,331.891 C 294.333,331.846 293.667,331.830 293.000,331.709 C 292.333,331.589 291.500,331.301 291.000,331.167 C 290.500,331.032 290.500,330.978 290.000,330.901 C 289.500,330.824 288.620,330.855 288.000,330.705 C 287.380,330.555 286.780,330.137 286.280,330.000 C 285.780,329.863 285.547,329.986 285.000,329.885 C 284.453,329.783 283.500,329.551 283.000,329.393 C 282.500,329.234 282.500,329.126 282.000,328.934 C 281.500,328.742 280.500,328.425 280.000,328.241 C 279.500,328.058 279.464,328.038 279.000,327.831 C 278.536,327.624 277.717,327.174 277.217,327.000 C 276.717,326.826 276.370,326.954 276.000,326.785 C 275.630,326.615 275.500,326.222 275.000,325.982 C 274.500,325.742 273.500,325.531 273.000,325.344 C 272.500,325.157 272.420,325.085 272.000,324.861 C 271.580,324.637 270.978,324.268 270.478,324.000 C 269.978,323.732 269.413,323.441 269.000,323.250 C 268.587,323.059 268.343,323.064 268.000,322.856 C 267.657,322.647 267.416,322.309 266.944,322.000 C 266.473,321.691 265.663,321.280 265.172,321.000 C 264.681,320.720 264.362,320.513 264.000,320.318 C 263.638,320.124 263.333,320.059 263.000,319.833 C 262.667,319.608 262.422,319.270 262.000,318.965 C 261.578,318.659 260.948,318.327 260.467,318.000 C 259.985,317.673 259.521,317.241 259.110,317.000 C 258.698,316.759 258.352,316.758 258.000,316.552 C 257.648,316.345 257.333,316.038 257.000,315.762 C 256.667,315.485 256.333,315.194 256.000,314.893 C 255.667,314.593 255.426,314.273 255.000,313.958 C 254.574,313.642 253.895,313.326 253.444,313.000 C 252.994,312.674 252.684,312.333 252.295,312.000 C 251.907,311.667 251.487,311.333 251.114,311.000 C 250.741,310.667 250.407,310.298 250.055,310.000 C 249.702,309.702 249.342,309.450 249.000,309.211 C 248.658,308.971 248.333,308.801 248.000,308.564 C 247.667,308.327 247.333,308.075 247.000,307.788 C 246.667,307.502 246.333,307.169 246.000,306.844 C 245.667,306.519 245.333,306.154 245.000,305.839 C 244.667,305.524 244.333,305.269 244.000,304.956 C 243.667,304.643 243.333,304.295 243.000,303.960 C 242.667,303.626 242.357,303.276 242.000,302.950 C 241.643,302.623 241.201,302.325 240.857,302.000 C 240.513,301.675 240.247,301.336 239.938,301.000 C 239.628,300.664 239.378,300.317 239.000,299.984 C 238.622,299.650 238.000,299.335 237.667,299.000 C 237.333,298.665 237.278,298.317 237.000,297.975 C 236.722,297.634 236.333,297.286 236.000,296.951 C 235.667,296.616 235.333,296.311 235.000,295.964 C 234.667,295.616 234.333,295.228 234.000,294.866 C 233.667,294.504 233.333,294.149 233.000,293.794 C 232.667,293.438 232.333,293.122 232.000,292.732 C 231.667,292.342 231.333,291.910 231.000,291.455 C 230.667,290.999 230.333,290.411 230.000,290.000 C 229.667,289.589 229.333,289.350 229.000,288.989 C 228.667,288.629 228.333,288.230 228.000,287.839 C 227.667,287.449 227.333,287.027 227.000,286.647 C 226.667,286.268 226.330,286.004 226.000,285.562 C 225.670,285.121 225.330,284.427 225.023,284.000 C 224.715,283.573 224.452,283.333 224.155,283.000 C 223.858,282.667 223.521,282.333 223.241,282.000 C 222.962,281.667 222.708,281.333 222.478,281.000 C 222.249,280.667 222.110,280.383 221.864,280.000 C 221.617,279.617 221.311,279.193 221.000,278.702 C 220.689,278.211 220.319,277.503 220.000,277.053 C 219.681,276.602 219.352,276.342 219.083,276.000 C 218.815,275.658 218.570,275.335 218.390,275.000 C 218.209,274.665 218.232,274.360 218.000,273.990 C 217.768,273.621 217.333,273.228 217.000,272.783 C 216.667,272.337 216.304,271.780 216.000,271.316 C 215.696,270.852 215.455,270.386 215.178,270.000 C 214.900,269.614 214.541,269.333 214.333,269.000 C 214.126,268.667 214.156,268.366 213.933,268.000 C 213.711,267.634 213.306,267.306 213.000,266.806 C 212.694,266.306 212.393,265.468 212.098,265.000 C 211.803,264.532 211.556,264.500 211.227,264.000 C 210.899,263.500 210.437,262.500 210.126,262.000 C 209.815,261.500 209.549,261.368 209.361,261.000 C 209.173,260.632 209.219,260.291 209.000,259.791 C 208.781,259.291 208.339,258.465 208.046,258.000 C 207.753,257.535 207.417,257.337 207.243,257.000 C 207.069,256.663 207.205,256.476 207.000,255.976 C 206.795,255.476 206.305,254.496 206.011,254.000 C 205.718,253.504 205.472,253.333 205.240,253.000 C 205.008,252.667 204.826,252.406 204.619,252.000 C 204.412,251.594 204.257,251.062 204.000,250.562 C 203.743,250.062 203.331,249.427 203.078,249.000 C 202.824,248.573 202.660,248.394 202.480,248.000 C 202.300,247.606 202.232,247.134 202.000,246.634 C 201.768,246.134 201.346,245.439 201.089,245.000 C 200.832,244.561 200.640,244.383 200.458,244.000 C 200.277,243.617 200.219,243.205 200.000,242.705 C 199.781,242.205 199.402,241.451 199.145,241.000 C 198.888,240.549 198.647,240.380 198.457,240.000 C 198.266,239.620 198.224,239.221 198.000,238.721 C 197.776,238.221 197.375,237.453 197.113,237.000 C 196.852,236.547 196.619,236.448 196.433,236.000 C 196.248,235.552 196.212,234.812 196.000,234.312 C 195.788,233.812 195.400,233.385 195.162,233.000 C 194.925,232.615 194.769,232.419 194.576,232.000 C 194.382,231.581 194.229,230.986 194.000,230.486 C 193.771,229.986 193.395,229.414 193.200,229.000 C 193.005,228.586 193.028,228.490 192.828,228.000 C 192.628,227.510 192.270,226.559 192.000,226.059 C 191.730,225.559 191.391,225.343 191.209,225.000 C 191.027,224.657 191.099,224.500 190.909,224.000 C 190.719,223.500 190.335,222.500 190.069,222.000 C 189.803,221.500 189.492,221.380 189.314,221.000 C 189.136,220.620 189.199,220.221 189.000,219.721 C 188.801,219.221 188.371,218.453 188.119,218.000 C 187.867,217.547 187.675,217.444 187.488,217.000 C 187.302,216.556 187.223,215.833 187.000,215.333 C 186.777,214.833 186.380,214.389 186.153,214.000 C 185.926,213.611 185.829,213.452 185.636,213.000 C 185.444,212.548 185.239,211.790 185.000,211.290 C 184.761,210.790 184.371,210.386 184.204,210.000 C 184.037,209.614 184.201,209.456 184.000,208.977 C 183.799,208.499 183.295,207.627 183.000,207.130 C 182.705,206.634 182.397,206.357 182.231,206.000 C 182.064,205.643 182.197,205.486 182.000,204.986 C 181.803,204.486 181.334,203.498 181.047,203.000 C 180.759,202.502 180.452,202.363 180.278,202.000 C 180.103,201.637 180.201,201.325 180.000,200.825 C 179.799,200.325 179.349,199.471 179.071,199.000 C 178.794,198.529 178.512,198.392 178.333,198.000 C 178.155,197.608 178.208,197.146 178.000,196.646 C 177.792,196.146 177.347,195.441 177.088,195.000 C 176.828,194.559 176.624,194.378 176.442,194.000 C 176.261,193.622 176.219,193.233 176.000,192.733 C 175.781,192.233 175.382,191.456 175.126,191.000 C 174.870,190.544 174.651,190.389 174.463,190.000 C 174.275,189.611 174.228,189.167 174.000,188.667 C 173.772,188.167 173.380,187.444 173.094,187.000 C 172.808,186.556 172.465,186.370 172.283,186.000 C 172.101,185.630 172.195,185.280 172.000,184.780 C 171.805,184.280 171.379,183.463 171.116,183.000 C 170.853,182.537 170.606,182.385 170.420,182.000 C 170.234,181.615 170.220,181.192 170.000,180.692 C 169.780,180.192 169.354,179.449 169.097,179.000 C 168.840,178.551 168.640,178.361 168.458,178.000 C 168.275,177.639 168.232,177.336 168.000,176.836 C 167.768,176.336 167.360,175.473 167.065,175.000 C 166.769,174.527 166.404,174.347 166.227,174.000 C 166.049,173.653 166.200,173.415 166.000,172.915 C 165.800,172.415 165.329,171.486 165.030,171.000 C 164.730,170.514 164.516,170.500 164.202,170.000 C 163.889,169.500 163.437,168.500 163.149,168.000 C 162.860,167.500 162.664,167.401 162.472,167.000 C 162.281,166.599 162.234,166.093 162.000,165.593 C 161.766,165.093 161.362,164.432 161.066,164.000 C 160.769,163.568 160.400,163.337 160.222,163.000 C 160.045,162.663 160.051,161.978 160.000,161.978 C 159.949,161.978 159.936,162.496 159.916,163.000 C 159.895,163.504 159.882,164.333 159.877,165.000 C 159.872,165.667 159.889,166.333 159.887,167.000 C 159.884,167.667 159.866,168.333 159.863,169.000 C 159.860,169.667 159.867,170.333 159.868,171.000 C 159.868,171.667 159.866,172.333 159.866,173.000 C 159.867,173.667 159.872,174.333 159.872,175.000 C 159.872,175.667 159.867,176.333 159.868,177.000 C 159.869,177.667 159.875,178.333 159.877,179.000 C 159.878,179.667 159.877,180.333 159.877,181.000 C 159.878,181.667 159.882,182.333 159.882,183.000 C 159.882,183.667 159.878,184.333 159.877,185.000 C 159.877,185.667 159.879,186.333 159.878,187.000 C 159.877,187.667 159.873,188.333 159.873,189.000 C 159.873,189.667 159.877,190.333 159.878,191.000 C 159.879,191.667 159.879,192.333 159.879,193.000 C 159.879,193.667 159.879,194.333 159.879,195.000 C 159.878,195.667 159.878,196.333 159.877,197.000 C 159.877,197.667 159.874,198.333 159.873,199.000 C 159.872,199.667 159.873,200.333 159.873,201.000 C 159.873,201.667 159.873,202.333 159.873,203.000 C 159.872,203.667 159.872,204.333 159.873,205.000 C 159.873,205.667 159.877,206.333 159.877,207.000 C 159.878,207.667 159.873,208.333 159.874,209.000 C 159.875,209.667 159.881,210.333 159.883,211.000 C 159.885,211.667 159.885,212.333 159.884,213.000 C 159.883,213.667 159.880,214.333 159.879,215.000 C 159.878,215.667 159.880,216.333 159.879,217.000 C 159.878,217.667 159.874,218.333 159.873,219.000 C 159.872,219.667 159.872,220.333 159.873,221.000 C 159.873,221.667 159.878,222.333 159.878,223.000 C 159.878,223.667 159.875,224.333 159.873,225.000 C 159.872,225.667 159.867,226.333 159.868,227.000 C 159.869,227.667 159.877,228.333 159.878,229.000 C 159.879,229.667 159.872,230.333 159.873,231.000 C 159.874,231.667 159.882,232.333 159.882,233.000 C 159.883,233.667 159.878,234.333 159.877,235.000 C 159.877,235.667 159.879,236.333 159.878,237.000 C 159.877,237.667 159.872,238.333 159.873,239.000 C 159.873,239.667 159.882,240.333 159.883,241.000 C 159.884,241.667 159.878,242.333 159.878,243.000 C 159.878,243.667 159.884,244.333 159.882,245.000 C 159.880,245.667 159.869,246.333 159.867,247.000 C 159.865,247.667 159.871,248.333 159.873,249.000 C 159.874,249.667 159.878,250.333 159.877,251.000 C 159.877,251.667 159.869,252.333 159.867,253.000 C 159.865,253.667 159.867,254.333 159.867,255.000 C 159.867,255.667 159.868,256.333 159.868,257.000 C 159.868,257.667 159.867,258.333 159.868,259.000 C 159.868,259.667 159.872,260.333 159.873,261.000 C 159.873,261.667 159.873,262.333 159.873,263.000 C 159.873,263.667 159.872,264.333 159.873,265.000 C 159.873,265.667 159.879,266.333 159.878,267.000 C 159.877,267.667 159.868,268.333 159.867,269.000 C 159.866,269.667 159.871,270.333 159.873,271.000 C 159.876,271.667 159.884,272.333 159.882,273.000 C 159.881,273.667 159.862,274.333 159.863,275.000 C 159.864,275.667 159.882,276.333 159.888,277.000 C 159.895,277.667 159.885,278.405 159.904,279.000 C 159.922,279.595 159.921,280.071 160.000,280.571 C 160.079,281.071 160.238,281.429 160.375,282.000 C 160.512,282.571 160.720,283.462 160.825,284.000 C 160.929,284.538 160.826,284.726 161.000,285.226 C 161.174,285.726 161.572,286.538 161.870,287.000 C 162.167,287.462 162.496,287.667 162.784,288.000 C 163.073,288.333 163.342,288.667 163.600,289.000 C 163.858,289.333 164.031,289.667 164.333,290.000 C 164.635,290.333 165.026,290.667 165.412,291.000 C 165.797,291.333 166.310,291.667 166.647,292.000 C 166.984,292.333 167.395,292.667 167.434,293.000 C 167.473,293.333 167.288,293.727 166.882,294.000 C 166.477,294.273 165.647,294.526 165.000,294.638 C 164.353,294.750 163.667,294.662 163.000,294.672 C 162.333,294.682 161.667,294.694 161.000,294.697 C 160.333,294.700 159.667,294.692 159.000,294.692 C 158.333,294.693 157.667,294.699 157.000,294.698 C 156.333,294.697 155.667,294.688 155.000,294.687 C 154.333,294.686 153.667,294.692 153.000,294.692 C 152.333,294.692 151.667,294.688 151.000,294.688 C 150.333,294.687 149.667,294.705 149.000,294.691 C 148.333,294.678 147.563,294.722 147.000,294.607 C 146.437,294.491 145.786,294.404 145.619,294.000 C 145.452,293.596 145.770,292.651 146.000,292.183 C 146.230,291.714 146.667,291.520 147.000,291.190 C 147.333,290.859 147.667,290.544 148.000,290.200 C 148.333,289.856 148.768,289.492 149.000,289.126 C 149.232,288.759 149.195,288.354 149.390,288.000 C 149.585,287.646 149.901,287.450 150.169,287.000 C 150.438,286.550 150.831,285.802 151.000,285.302 C 151.169,284.802 151.116,284.550 151.185,284.000 C 151.255,283.450 151.360,282.667 151.417,282.000 C 151.474,281.333 151.498,280.667 151.526,280.000 C 151.555,279.333 151.583,278.667 151.588,278.000 C 151.593,277.333 151.554,276.667 151.556,276.000 C 151.558,275.333 151.598,274.667 151.600,274.000 C 151.602,273.333 151.577,272.667 151.566,272.000 C 151.555,271.333 151.539,270.667 151.536,270.000 C 151.532,269.333 151.542,268.667 151.545,268.000 C 151.549,267.333 151.556,266.667 151.556,266.000 C 151.556,265.333 151.549,264.667 151.545,264.000 C 151.542,263.333 151.540,262.667 151.536,262.000 C 151.531,261.333 151.519,260.667 151.517,260.000 C 151.516,259.333 151.523,258.667 151.526,258.000 C 151.529,257.333 151.531,256.667 151.536,256.000 C 151.541,255.333 151.557,254.667 151.556,254.000 C 151.554,253.333 151.534,252.667 151.526,252.000 C 151.518,251.333 151.508,250.667 151.508,250.000 C 151.508,249.333 151.523,248.667 151.526,248.000 C 151.529,247.333 151.528,246.667 151.526,246.000 C 151.525,245.333 151.524,244.667 151.517,244.000 C 151.510,243.333 151.487,242.667 151.484,242.000 C 151.481,241.333 151.497,240.667 151.500,240.000 C 151.503,239.333 151.492,238.667 151.500,238.000 C 151.508,237.333 151.540,236.667 151.545,236.000 C 151.551,235.333 151.543,234.667 151.536,234.000 C 151.528,233.333 151.506,232.667 151.500,232.000 C 151.494,231.333 151.501,230.667 151.500,230.000 C 151.499,229.333 151.496,228.667 151.492,228.000 C 151.488,227.333 151.478,226.667 151.476,226.000 C 151.475,225.333 151.483,224.667 151.484,224.000 C 151.485,223.333 151.486,222.667 151.484,222.000 C 151.481,221.333 151.475,220.667 151.469,220.000 C 151.463,219.333 151.452,218.667 151.448,218.000 C 151.443,217.333 151.442,216.667 151.441,216.000 C 151.440,215.333 151.438,214.667 151.441,214.000 C 151.445,213.333 151.460,212.667 151.462,212.000 C 151.463,211.333 151.444,210.667 151.448,210.000 C 151.451,209.333 151.479,208.667 151.484,208.000 C 151.489,207.333 151.480,206.667 151.476,206.000 C 151.472,205.333 151.466,204.667 151.462,204.000 C 151.457,203.333 151.452,202.667 151.448,202.000 C 151.443,201.333 151.434,200.667 151.435,200.000 C 151.436,199.333 151.448,198.667 151.455,198.000 C 151.461,197.333 151.473,196.667 151.476,196.000 C 151.480,195.333 151.479,194.667 151.476,194.000 C 151.474,193.333 151.464,192.667 151.462,192.000 C 151.459,191.333 151.462,190.667 151.462,190.000 C 151.462,189.333 151.460,188.667 151.462,188.000 C 151.463,187.333 151.469,186.667 151.469,186.000 C 151.469,185.333 151.463,184.667 151.462,184.000 C 151.460,183.333 151.460,182.667 151.462,182.000 C 151.463,181.333 151.465,180.667 151.469,180.000 C 151.472,179.333 151.484,178.667 151.484,178.000 C 151.484,177.333 151.469,176.667 151.469,176.000 C 151.469,175.333 151.480,174.667 151.484,174.000 C 151.488,173.333 151.496,172.667 151.492,172.000 C 151.488,171.333 151.460,170.667 151.462,170.000 C 151.463,169.333 151.492,168.667 151.500,168.000 C 151.508,167.333 151.515,166.667 151.508,166.000 C 151.502,165.333 151.468,164.667 151.462,164.000 C 151.455,163.333 151.464,162.667 151.469,162.000 C 151.474,161.333 151.495,160.667 151.492,160.000 C 151.488,159.333 151.457,158.667 151.448,158.000 C 151.438,157.333 151.438,156.667 151.435,156.000 C 151.432,155.333 151.429,154.667 151.429,154.000 C 151.429,153.333 151.443,152.667 151.435,152.000 C 151.426,151.333 151.449,150.547 151.377,150.000 C 151.304,149.453 151.229,149.115 151.000,148.717 C 150.771,148.319 150.330,148.064 150.000,147.611 C 149.670,147.158 149.344,146.435 149.022,146.000 C 148.699,145.565 148.377,145.333 148.065,145.000 C 147.753,144.667 147.451,144.333 147.148,144.000 C 146.845,143.667 146.581,143.333 146.245,143.000 C 145.909,142.667 145.468,142.333 145.133,142.000 C 144.799,141.667 144.498,141.333 144.238,141.000 C 143.978,140.667 143.939,140.500 143.571,140.000 C 143.204,139.500 142.461,138.474 142.033,138.000 C 141.604,137.526 141.332,137.487 141.000,137.154 C 140.668,136.821 140.365,136.359 140.043,136.000 C 139.720,135.641 139.405,135.318 139.065,135.000 C 138.724,134.682 138.343,134.424 138.000,134.091 C 137.657,133.758 137.340,133.348 137.008,133.000 C 136.676,132.652 136.343,132.232 136.008,132.000 C 135.673,131.768 135.335,131.828 135.000,131.607 C 134.665,131.386 134.333,130.970 134.000,130.673 C 133.667,130.376 133.333,130.119 133.000,129.825 C 132.667,129.532 132.333,129.225 132.000,128.911 C 131.667,128.597 131.460,128.258 131.000,127.940 C 130.540,127.621 129.738,127.323 129.242,127.000 C 128.747,126.677 128.400,126.230 128.026,126.000 C 127.652,125.770 127.338,125.813 127.000,125.622 C 126.662,125.430 126.386,125.123 126.000,124.853 C 125.614,124.583 125.175,124.309 124.684,124.000 C 124.193,123.691 123.501,123.201 123.054,123.000 C 122.606,122.799 122.342,122.966 122.000,122.794 C 121.658,122.622 121.500,122.212 121.000,121.968 C 120.500,121.725 119.500,121.519 119.000,121.333 C 118.500,121.148 118.460,121.079 118.000,120.857 C 117.540,120.635 116.741,120.171 116.241,120.000 C 115.741,119.829 115.521,120.000 115.000,119.833 C 114.479,119.667 113.615,119.162 113.115,119.000 C 112.615,118.838 112.519,118.933 112.000,118.861 C 111.481,118.788 110.639,118.709 110.000,118.566 C 109.361,118.423 108.667,118.103 108.167,118.000 C 107.667,117.897 107.528,117.968 107.000,117.947 C 106.472,117.925 105.667,117.899 105.000,117.872 C 104.333,117.845 103.667,117.803 103.000,117.786 C 102.333,117.768 101.667,117.769 101.000,117.768 C 100.333,117.767 99.667,117.775 99.000,117.779 C 98.333,117.784 97.667,117.770 97.000,117.796 C 96.333,117.821 95.556,117.900 95.000,117.934 C 94.444,117.968 94.167,117.888 93.667,118.000 C 93.167,118.112 92.611,118.458 92.000,118.603 C 91.389,118.748 90.559,118.804 90.000,118.870 C 89.441,118.936 89.147,118.862 88.647,119.000 C 88.147,119.138 87.608,119.542 87.000,119.697 C 86.392,119.852 85.500,119.808 85.000,119.928 C 84.500,120.048 84.500,120.253 84.000,120.417 C 83.500,120.580 82.500,120.756 82.000,120.909 C 81.500,121.062 81.500,121.162 81.000,121.333 C 80.500,121.505 79.500,121.750 79.000,121.936 C 78.500,122.122 78.500,122.277 78.000,122.450 C 77.500,122.623 76.500,122.772 76.000,122.977 C 75.500,123.181 75.395,123.505 75.000,123.676 C 74.605,123.846 74.129,123.806 73.629,124.000 C 73.129,124.194 72.438,124.609 72.000,124.838 C 71.562,125.067 71.500,125.190 71.000,125.375 C 70.500,125.560 69.500,125.719 69.000,125.947 C 68.500,126.174 68.358,126.565 68.000,126.741 C 67.642,126.916 67.351,126.809 66.851,127.000 C 66.351,127.191 65.475,127.611 65.000,127.887 C 64.525,128.164 64.368,128.474 64.000,128.659 C 63.632,128.845 63.289,128.778 62.789,129.000 C 62.289,129.222 61.465,129.689 61.000,129.990 C 60.535,130.292 60.333,130.551 60.000,130.810 C 59.667,131.069 59.385,131.347 59.000,131.545 C 58.615,131.744 58.188,131.763 57.688,132.000 C 57.188,132.237 56.448,132.687 56.000,132.969 C 55.552,133.250 55.384,133.685 55.000,133.691 C 54.616,133.696 53.753,133.282 53.698,133.000 C 53.642,132.718 54.283,132.308 54.667,132.000 C 55.050,131.692 55.611,131.447 56.000,131.152 C 56.389,130.857 56.667,130.513 57.000,130.229 C 57.333,129.945 57.635,129.653 58.000,129.448 C 58.365,129.243 58.771,129.241 59.190,129.000 C 59.610,128.759 60.049,128.310 60.517,128.000 C 60.986,127.690 61.586,127.432 62.000,127.141 C 62.414,126.850 62.661,126.442 63.000,126.252 C 63.339,126.062 63.634,126.209 64.032,126.000 C 64.431,125.791 64.895,125.311 65.390,125.000 C 65.884,124.689 66.565,124.416 67.000,124.134 C 67.435,123.852 67.655,123.498 68.000,123.309 C 68.345,123.120 68.633,123.218 69.073,123.000 C 69.512,122.782 70.150,122.300 70.638,122.000 C 71.126,121.700 71.606,121.398 72.000,121.200 C 72.394,121.002 72.560,121.011 73.000,120.811 C 73.440,120.611 74.138,120.272 74.638,120.000 C 75.138,119.728 75.606,119.412 76.000,119.181 C 76.394,118.949 76.553,118.809 77.000,118.612 C 77.447,118.415 78.182,118.232 78.682,118.000 C 79.182,117.768 79.586,117.387 80.000,117.221 C 80.414,117.054 80.669,117.178 81.169,117.000 C 81.669,116.822 82.528,116.391 83.000,116.150 C 83.472,115.909 83.500,115.731 84.000,115.556 C 84.500,115.380 85.500,115.303 86.000,115.099 C 86.500,114.894 86.500,114.510 87.000,114.330 C 87.500,114.150 88.500,114.187 89.000,114.019 C 89.500,113.850 89.500,113.475 90.000,113.319 C 90.500,113.163 91.500,113.236 92.000,113.085 C 92.500,112.934 92.500,112.567 93.000,112.411 C 93.500,112.255 94.491,112.217 95.000,112.149 C 95.509,112.080 95.553,112.156 96.053,112.000 C 96.553,111.844 97.342,111.365 98.000,111.213 C 98.658,111.060 99.500,111.182 100.000,111.084 C 100.500,110.986 100.500,110.763 101.000,110.625 C 101.500,110.487 102.333,110.334 103.000,110.256 C 103.667,110.179 104.333,110.199 105.000,110.162 C 105.667,110.125 106.500,110.083 107.000,110.036 C 107.500,109.990 107.500,109.959 108.000,109.882 C 108.500,109.806 109.333,109.654 110.000,109.577 C 110.667,109.500 111.333,109.437 112.000,109.423 C 112.667,109.408 113.333,109.411 114.000,109.492 C 114.667,109.573 115.500,109.821 116.000,109.909 C 116.500,109.998 116.500,109.986 117.000,110.023 C 117.500,110.060 118.333,110.098 119.000,110.129 C 119.667,110.159 120.333,110.134 121.000,110.205 C 121.667,110.277 122.500,110.412 123.000,110.556 C 123.500,110.699 123.500,110.954 124.000,111.066 C 124.500,111.177 125.374,111.068 126.000,111.224 C 126.626,111.380 127.259,111.842 127.759,112.000 C 128.259,112.158 128.483,112.008 129.000,112.174 C 129.517,112.341 130.361,112.832 130.861,113.000 C 131.361,113.168 131.531,113.014 132.000,113.181 C 132.469,113.347 133.176,113.822 133.676,114.000 C 134.176,114.178 134.613,114.079 135.000,114.248 C 135.387,114.417 135.504,114.722 136.000,115.014 C 136.496,115.306 137.474,115.799 137.974,116.000 C 138.474,116.201 138.662,116.044 139.000,116.219 C 139.338,116.394 139.545,116.755 140.000,117.052 C 140.455,117.349 141.228,117.764 141.728,118.000 C 142.228,118.236 142.621,118.271 143.000,118.469 C 143.379,118.666 143.667,118.925 144.000,119.186 C 144.333,119.448 144.557,119.735 145.000,120.037 C 145.443,120.339 146.183,120.673 146.655,121.000 C 147.127,121.327 147.441,121.717 147.832,122.000 C 148.223,122.283 148.639,122.474 149.000,122.698 C 149.361,122.921 149.667,123.086 150.000,123.341 C 150.333,123.596 150.667,123.924 151.000,124.229 C 151.333,124.534 151.667,124.855 152.000,125.171 C 152.333,125.487 152.661,125.820 153.000,126.125 C 153.339,126.430 153.623,126.688 154.032,127.000 C 154.441,127.312 155.036,127.667 155.455,128.000 C 155.873,128.333 156.185,128.667 156.545,129.000 C 156.906,129.333 157.263,129.667 157.620,130.000 C 157.978,130.333 158.342,130.667 158.691,131.000 C 159.040,131.333 159.376,131.667 159.714,132.000 C 160.052,132.333 160.386,132.667 160.720,133.000 C 161.053,133.333 161.383,133.667 161.714,134.000 C 162.045,134.333 162.381,134.667 162.706,135.000 C 163.031,135.333 163.342,135.667 163.663,136.000 C 163.984,136.333 164.316,136.667 164.630,137.000 C 164.943,137.333 165.259,137.667 165.545,138.000 C 165.832,138.333 166.105,138.662 166.348,139.000 C 166.590,139.338 166.725,139.670 167.000,140.028 C 167.275,140.386 167.667,140.787 168.000,141.148 C 168.333,141.509 168.667,141.839 169.000,142.195 C 169.333,142.551 169.667,142.893 170.000,143.283 C 170.333,143.673 170.671,144.083 171.000,144.536 C 171.329,144.989 171.664,145.589 171.971,146.000 C 172.278,146.411 172.540,146.667 172.842,147.000 C 173.145,147.333 173.489,147.667 173.786,148.000 C 174.083,148.333 174.423,148.664 174.625,149.000 C 174.827,149.336 174.771,149.649 175.000,150.017 C 175.229,150.386 175.667,150.812 176.000,151.212 C 176.333,151.612 176.679,151.952 177.000,152.417 C 177.321,152.881 177.624,153.569 177.925,154.000 C 178.225,154.431 178.528,154.667 178.803,155.000 C 179.077,155.333 179.372,155.645 179.571,156.000 C 179.771,156.355 179.762,156.744 180.000,157.132 C 180.238,157.521 180.671,157.852 181.000,158.330 C 181.329,158.808 181.672,159.555 181.976,160.000 C 182.281,160.445 182.548,160.667 182.827,161.000 C 183.105,161.333 183.451,161.641 183.647,162.000 C 183.843,162.359 183.775,162.722 184.000,163.154 C 184.225,163.585 184.693,164.114 185.000,164.588 C 185.307,165.063 185.563,165.598 185.845,166.000 C 186.126,166.402 186.498,166.650 186.691,167.000 C 186.883,167.350 186.782,167.683 187.000,168.101 C 187.218,168.520 187.692,169.025 188.000,169.508 C 188.308,169.992 188.572,170.585 188.848,171.000 C 189.125,171.415 189.467,171.640 189.659,172.000 C 189.851,172.360 189.777,172.676 190.000,173.161 C 190.223,173.646 190.697,174.436 191.000,174.909 C 191.303,175.382 191.562,175.652 191.818,176.000 C 192.075,176.348 192.341,176.611 192.538,177.000 C 192.735,177.389 192.778,177.833 193.000,178.333 C 193.222,178.833 193.577,179.556 193.873,180.000 C 194.168,180.444 194.561,180.667 194.773,181.000 C 194.984,181.333 194.938,181.553 195.143,182.000 C 195.347,182.447 195.720,183.182 196.000,183.682 C 196.280,184.182 196.562,184.614 196.824,185.000 C 197.085,185.386 197.375,185.607 197.571,186.000 C 197.768,186.393 197.785,186.857 198.000,187.357 C 198.215,187.857 198.573,188.560 198.859,189.000 C 199.144,189.440 199.524,189.629 199.714,190.000 C 199.905,190.371 199.795,190.723 200.000,191.223 C 200.205,191.723 200.654,192.537 200.944,193.000 C 201.233,193.463 201.561,193.634 201.737,194.000 C 201.913,194.366 201.799,194.698 202.000,195.198 C 202.201,195.698 202.650,196.533 202.945,197.000 C 203.240,197.467 203.593,197.656 203.769,198.000 C 203.945,198.344 203.804,198.567 204.000,199.067 C 204.196,199.567 204.653,200.511 204.948,201.000 C 205.243,201.489 205.594,201.662 205.769,202.000 C 205.945,202.338 205.796,202.526 206.000,203.026 C 206.204,203.526 206.695,204.504 206.991,205.000 C 207.286,205.496 207.604,205.649 207.773,206.000 C 207.941,206.351 207.795,206.605 208.000,207.105 C 208.205,207.605 208.667,208.366 209.000,209.000 C 209.333,209.634 209.703,210.409 210.000,210.909 C 210.297,211.409 210.613,211.636 210.779,212.000 C 210.946,212.364 210.800,212.591 211.000,213.091 C 211.200,213.591 211.684,214.515 211.981,215.000 C 212.279,215.485 212.614,215.664 212.784,216.000 C 212.954,216.336 212.804,216.518 213.000,217.018 C 213.196,217.518 213.667,218.503 213.963,219.000 C 214.258,219.497 214.600,219.661 214.773,220.000 C 214.946,220.339 214.799,220.534 215.000,221.034 C 215.201,221.534 215.683,222.506 215.977,223.000 C 216.271,223.494 216.593,223.653 216.764,224.000 C 216.934,224.347 216.800,224.585 217.000,225.085 C 217.200,225.585 217.665,226.514 217.962,227.000 C 218.259,227.486 218.610,227.664 218.783,228.000 C 218.956,228.336 218.803,228.518 219.000,229.018 C 219.197,229.518 219.672,230.503 219.967,231.000 C 220.263,231.497 220.601,231.661 220.773,232.000 C 220.945,232.339 220.795,232.572 221.000,233.033 C 221.205,233.495 221.698,234.275 222.000,234.769 C 222.302,235.264 222.585,235.628 222.810,236.000 C 223.035,236.372 223.150,236.571 223.348,237.000 C 223.546,237.429 223.753,238.077 224.000,238.577 C 224.247,239.077 224.563,239.596 224.832,240.000 C 225.102,240.404 225.421,240.607 225.615,241.000 C 225.810,241.393 225.794,241.857 226.000,242.357 C 226.206,242.857 226.572,243.560 226.851,244.000 C 227.131,244.440 227.486,244.638 227.677,245.000 C 227.869,245.362 227.780,245.672 228.000,246.172 C 228.220,246.672 228.667,247.429 229.000,248.000 C 229.333,248.571 229.692,249.100 230.000,249.600 C 230.308,250.100 230.660,250.767 230.848,251.000 C 231.035,251.233 231.018,251.333 231.125,251.000 C 231.232,250.667 231.328,249.500 231.490,249.000 C 231.652,248.500 231.921,248.500 232.097,248.000 C 232.273,247.500 232.376,246.500 232.545,246.000 C 232.715,245.500 232.901,245.500 233.115,245.000 C 233.329,244.500 233.656,243.500 233.829,243.000 C 234.002,242.500 233.957,242.490 234.152,242.000 C 234.348,241.510 234.826,240.562 235.000,240.062 C 235.174,239.562 235.028,239.483 235.195,239.000 C 235.361,238.517 235.833,237.667 236.000,237.167 C 236.167,236.667 236.031,236.498 236.197,236.000 C 236.364,235.502 236.831,234.680 237.000,234.180 C 237.169,233.680 237.045,233.491 237.211,233.000 C 237.378,232.509 237.827,231.734 238.000,231.234 C 238.173,230.734 238.085,230.450 238.252,230.000 C 238.419,229.550 238.836,229.037 239.000,228.537 C 239.164,228.037 239.071,227.494 239.238,227.000 C 239.405,226.506 239.830,226.071 240.000,225.571 C 240.170,225.071 240.092,224.504 240.259,224.000 C 240.425,223.496 240.825,223.050 241.000,222.550 C 241.175,222.050 241.139,221.430 241.306,221.000 C 241.473,220.570 241.834,220.468 242.000,219.968 C 242.166,219.468 242.105,218.661 242.303,218.000 C 242.501,217.339 242.902,216.667 243.185,216.000 C 243.468,215.333 243.803,214.667 244.000,214.000 C 244.197,213.333 244.195,212.500 244.366,212.000 C 244.537,211.500 244.856,211.500 245.025,211.000 C 245.194,210.500 245.205,209.500 245.380,209.000 C 245.554,208.500 245.899,208.500 246.071,208.000 C 246.243,207.500 246.252,206.500 246.411,206.000 C 246.570,205.500 246.851,205.500 247.026,205.000 C 247.201,204.500 247.282,203.500 247.462,203.000 C 247.641,202.500 247.908,202.500 248.104,202.000 C 248.300,201.500 248.463,200.500 248.638,200.000 C 248.814,199.500 248.949,199.500 249.156,199.000 C 249.364,198.500 249.715,197.500 249.882,197.000 C 250.050,196.500 249.988,196.500 250.162,196.000 C 250.336,195.500 250.757,194.500 250.926,194.000 C 251.095,193.500 250.997,193.497 251.176,193.000 C 251.355,192.503 251.828,191.515 252.000,191.015 C 252.172,190.515 252.042,190.453 252.208,190.000 C 252.375,189.547 252.831,188.796 253.000,188.296 C 253.169,187.796 253.056,187.485 253.222,187.000 C 253.389,186.515 253.829,185.885 254.000,185.385 C 254.171,184.885 254.081,184.462 254.248,184.000 C 254.415,183.538 254.825,183.114 255.000,182.614 C 255.175,182.114 255.131,181.436 255.300,181.000 C 255.469,180.564 255.835,180.500 256.015,180.000 C 256.195,179.500 256.205,178.500 256.380,178.000 C 256.554,177.500 256.886,177.500 257.062,177.000 C 257.237,176.500 257.266,175.500 257.435,175.000 C 257.604,174.500 257.887,174.500 258.075,174.000 C 258.264,173.500 258.391,172.500 258.566,172.000 C 258.741,171.500 258.935,171.500 259.124,171.000 C 259.313,170.500 259.525,169.500 259.700,169.000 C 259.875,168.500 259.960,168.486 260.177,168.000 C 260.393,167.514 260.829,166.583 261.000,166.083 C 261.171,165.583 261.033,165.457 261.200,165.000 C 261.367,164.543 261.830,163.840 262.000,163.340 C 262.170,162.840 262.056,162.495 262.222,162.000 C 262.389,161.505 262.827,160.870 263.000,160.370 C 263.173,159.870 263.092,159.441 263.259,159.000 C 263.425,158.559 263.823,158.222 264.000,157.722 C 264.177,157.222 264.144,156.454 264.319,156.000 C 264.494,155.546 264.864,155.500 265.050,155.000 C 265.235,154.500 265.264,153.500 265.435,153.000 C 265.606,152.500 265.889,152.500 266.074,152.000 C 266.260,151.500 266.373,150.500 266.549,150.000 C 266.725,149.500 266.923,149.500 267.129,149.000 C 267.335,148.500 267.610,147.500 267.784,147.000 C 267.958,146.500 267.970,146.476 268.172,146.000 C 268.375,145.524 268.824,144.643 269.000,144.143 C 269.176,143.643 269.059,143.420 269.226,143.000 C 269.392,142.580 269.704,142.073 270.000,141.625 C 270.296,141.177 270.500,140.547 271.000,140.312 C 271.500,140.078 272.333,140.232 273.000,140.216 C 273.667,140.199 274.333,140.214 275.000,140.214 C 275.667,140.215 276.333,140.218 277.000,140.217 C 277.667,140.217 278.333,140.213 279.000,140.213 C 279.667,140.213 280.333,140.217 281.000,140.217 C 281.667,140.218 282.333,140.218 283.000,140.217 C 283.667,140.217 284.333,140.215 285.000,140.214 C 285.667,140.214 286.333,140.216 287.000,140.216 C 287.667,140.216 288.333,140.215 289.000,140.214 C 289.667,140.214 290.333,140.212 291.000,140.213 C 291.667,140.213 292.333,140.215 293.000,140.217 C 293.667,140.220 294.333,140.197 295.000,140.227 C 295.667,140.258 296.578,140.105 297.000,140.400 C 297.422,140.695 297.698,141.589 297.531,142.000 C 297.365,142.411 296.422,142.562 296.000,142.868 C 295.578,143.174 295.333,143.522 295.000,143.837 C 294.667,144.153 294.333,144.430 294.000,144.760 C 293.667,145.090 293.328,145.445 293.000,145.818 C 292.672,146.191 292.237,146.636 292.032,147.000 C 291.827,147.364 291.941,147.656 291.769,148.000 C 291.597,148.344 291.168,148.562 291.000,149.062 C 290.832,149.562 290.854,150.344 290.762,151.000 C 290.669,151.656 290.548,152.333 290.444,153.000 C 290.341,153.667 290.207,154.333 290.143,155.000 C 290.079,155.667 290.067,156.333 290.062,157.000 C 290.058,157.667 290.113,158.333 290.118,159.000 C 290.122,159.667 290.105,160.333 290.091,161.000 C 290.077,161.667 290.028,162.333 290.032,163.000 C 290.037,163.667 290.113,164.333 290.118,165.000 C 290.123,165.667 290.051,166.333 290.062,167.000 C 290.074,167.667 290.172,168.333 290.189,169.000 C 290.207,169.667 290.174,170.333 290.167,171.000 C 290.159,171.667 290.155,172.333 290.143,173.000 C 290.130,173.667 290.095,174.333 290.091,175.000 C 290.087,175.667 290.133,176.333 290.118,177.000 C 290.102,177.667 290.000,178.333 290.000,179.000 C 290.000,179.667 290.107,180.333 290.118,181.000 C 290.128,181.667 290.054,182.333 290.062,183.000 C 290.071,183.667 290.146,184.333 290.167,185.000 C 290.188,185.667 290.179,186.333 290.189,187.000 C 290.200,187.667 290.235,188.333 290.231,189.000 C 290.227,189.667 290.174,190.333 290.167,191.000 C 290.160,191.667 290.197,192.333 290.189,193.000 C 290.181,193.667 290.134,194.333 290.118,195.000 C 290.101,195.667 290.087,196.333 290.091,197.000 C 290.095,197.667 290.138,198.333 290.143,199.000 C 290.147,199.667 290.114,200.333 290.118,201.000 C 290.122,201.667 290.162,202.333 290.167,203.000 C 290.171,203.667 290.139,204.333 290.143,205.000 C 290.147,205.667 290.175,206.333 290.189,207.000 C 290.204,207.667 290.231,208.333 290.231,209.000 C 290.231,209.667 290.208,210.333 290.189,211.000 C 290.170,211.667 290.125,212.333 290.118,213.000 C 290.110,213.667 290.152,214.333 290.143,215.000 C 290.134,215.667 290.062,216.333 290.062,217.000 C 290.062,217.667 290.125,218.333 290.143,219.000 C 290.160,219.667 290.175,220.333 290.167,221.000 C 290.158,221.667 290.091,222.333 290.091,223.000 C 290.091,223.667 290.150,224.333 290.167,225.000 C 290.183,225.667 290.193,226.333 290.189,227.000 C 290.185,227.667 290.147,228.333 290.143,229.000 C 290.139,229.667 290.175,230.333 290.167,231.000 C 290.158,231.667 290.091,232.333 290.091,233.000 C 290.091,233.667 290.147,234.333 290.167,235.000 C 290.187,235.667 290.211,236.333 290.211,237.000 C 290.211,237.667 290.174,238.333 290.167,239.000 C 290.159,239.667 290.163,240.333 290.167,241.000 C 290.170,241.667 290.197,242.333 290.189,243.000 C 290.181,243.667 290.121,244.333 290.118,245.000 C 290.114,245.667 290.158,246.333 290.167,247.000 C 290.175,247.667 290.179,248.333 290.167,249.000 C 290.154,249.667 290.084,250.333 290.091,251.000 C 290.098,251.667 290.198,252.333 290.211,253.000 C 290.223,253.667 290.187,254.333 290.167,255.000 C 290.147,255.667 290.095,256.333 290.091,257.000 C 290.087,257.667 290.143,258.333 290.143,259.000 C 290.143,259.667 290.100,260.333 290.091,261.000 C 290.082,261.667 290.091,262.333 290.091,263.000 C 290.091,263.667 290.091,264.333 290.091,265.000 C 290.091,265.667 290.082,266.333 290.091,267.000 C 290.100,267.667 290.134,268.333 290.143,269.000 C 290.152,269.667 290.156,270.333 290.143,271.000 C 290.129,271.667 290.076,272.333 290.062,273.000 C 290.049,273.667 290.053,274.333 290.062,275.000 C 290.072,275.667 290.130,276.500 290.118,277.000 C 290.106,277.500 290.010,277.583 289.990,278.000 C 289.971,278.417 289.945,279.000 290.000,279.500 C 290.055,280.000 290.202,280.417 290.318,281.000 C 290.434,281.583 290.593,282.333 290.697,283.000 C 290.801,283.667 290.782,284.500 290.944,285.000 C 291.107,285.500 291.494,285.628 291.670,286.000 C 291.846,286.372 291.778,286.830 292.000,287.233 C 292.222,287.636 292.667,288.043 293.000,288.417 C 293.333,288.791 293.667,289.132 294.000,289.476 C 294.333,289.821 294.667,290.173 295.000,290.484 C 295.333,290.795 295.667,291.027 296.000,291.341 C 296.333,291.655 296.833,291.937 297.000,292.366 C 297.167,292.794 297.167,293.532 297.000,293.912 C 296.833,294.292 296.500,294.519 296.000,294.645 C 295.500,294.771 294.667,294.657 294.000,294.667 C 293.333,294.677 292.667,294.700 292.000,294.706 C 291.333,294.712 290.667,294.702 290.000,294.701 C 289.333,294.701 288.667,294.698 288.000,294.703 C 287.333,294.708 286.667,294.730 286.000,294.731 C 285.333,294.733 284.667,294.719 284.000,294.712 C 283.333,294.706 282.667,294.695 282.000,294.692 C 281.333,294.690 280.667,294.697 280.000,294.697 C 279.333,294.697 278.667,294.693 278.000,294.692 C 277.333,294.692 276.667,294.694 276.000,294.692 C 275.333,294.691 274.667,294.680 274.000,294.682 C 273.333,294.683 272.667,294.697 272.000,294.701 C 271.333,294.706 270.667,294.713 270.000,294.708 C 269.333,294.702 268.667,294.677 268.000,294.667 C 267.333,294.656 266.667,294.645 266.000,294.645 C 265.333,294.645 264.569,294.774 264.000,294.667 C 263.431,294.559 262.755,294.418 262.588,294.000 C 262.422,293.582 262.765,292.629 263.000,292.159 C 263.235,291.689 263.667,291.507 264.000,291.180 C 264.333,290.852 264.667,290.545 265.000,290.194 C 265.333,289.842 265.758,289.434 266.000,289.068 C 266.242,288.703 266.257,288.345 266.455,288.000 C 266.652,287.655 266.926,287.378 267.184,287.000 C 267.442,286.622 267.808,286.232 268.000,285.732 C 268.192,285.232 268.167,284.483 268.333,284.000 C 268.500,283.517 268.857,283.333 269.000,282.833 C 269.143,282.333 269.148,281.639 269.192,281.000 C 269.237,280.361 269.255,279.667 269.268,279.000 C 269.281,278.333 269.269,277.667 269.270,277.000 C 269.271,276.333 269.274,275.667 269.275,275.000 C 269.276,274.333 269.278,273.667 269.278,273.000 C 269.278,272.333 269.277,271.667 269.275,271.000 C 269.273,270.333 269.266,269.667 269.265,269.000 C 269.265,268.333 269.273,267.667 269.273,267.000 C 269.272,266.333 269.264,265.667 269.263,265.000 C 269.262,264.333 269.266,263.667 269.268,263.000 C 269.270,262.333 269.274,261.667 269.275,261.000 C 269.276,260.333 269.272,259.667 269.273,259.000 C 269.273,258.333 269.277,257.667 269.278,257.000 C 269.279,256.333 269.279,255.667 269.278,255.000 C 269.276,254.333 269.270,253.667 269.268,253.000 C 269.266,252.333 269.267,251.667 269.268,251.000 C 269.268,250.333 269.271,249.667 269.270,249.000 C 269.269,248.333 269.264,247.667 269.263,247.000 C 269.263,246.333 269.267,245.667 269.268,245.000 C 269.268,244.333 269.267,243.667 269.265,243.000 C 269.264,242.333 269.260,241.667 269.261,241.000 C 269.262,240.333 269.272,239.667 269.273,239.000 C 269.274,238.333 269.268,237.667 269.268,237.000 C 269.267,236.333 269.269,235.667 269.270,235.000 C 269.271,234.333 269.273,233.667 269.273,233.000 C 269.273,232.333 269.271,231.667 269.270,231.000 C 269.269,230.333 269.265,229.667 269.265,229.000 C 269.266,228.333 269.273,227.667 269.273,227.000 C 269.272,226.333 269.263,225.667 269.263,225.000 C 269.264,224.333 269.274,223.667 269.275,223.000 C 269.277,222.333 269.275,221.667 269.273,221.000 C 269.271,220.333 269.264,219.667 269.263,219.000 C 269.262,218.333 269.267,217.667 269.268,217.000 C 269.269,216.333 269.271,215.667 269.270,215.000 C 269.270,214.333 269.265,213.667 269.265,213.000 C 269.265,212.333 269.270,211.667 269.270,211.000 C 269.271,210.333 269.268,209.667 269.268,209.000 C 269.267,208.333 269.267,207.667 269.268,207.000 C 269.269,206.333 269.273,205.667 269.273,205.000 C 269.273,204.333 269.268,203.667 269.268,203.000 C 269.267,202.333 269.271,201.667 269.270,201.000 C 269.270,200.333 269.266,199.667 269.265,199.000 C 269.265,198.333 269.267,197.667 269.268,197.000 C 269.269,196.333 269.269,195.667 269.270,195.000 C 269.271,194.333 269.273,193.667 269.273,193.000 C 269.272,192.333 269.268,191.667 269.268,191.000 C 269.268,190.333 269.273,189.667 269.273,189.000 C 269.273,188.333 269.268,187.667 269.268,187.000 C 269.268,186.333 269.272,185.667 269.273,185.000 C 269.273,184.333 269.271,183.667 269.270,183.000 C 269.270,182.333 269.270,181.667 269.270,181.000 C 269.271,180.333 269.271,179.667 269.273,179.000 C 269.275,178.333 269.282,177.667 269.283,177.000 C 269.284,176.333 269.279,175.667 269.280,175.000 C 269.281,174.333 269.289,173.667 269.288,173.000 C 269.288,172.333 269.273,171.667 269.276,171.000 C 269.278,170.333 269.316,169.667 269.303,169.000 C 269.290,168.333 269.264,167.333 269.200,167.000 C 269.136,166.667 269.023,166.667 268.919,167.000 C 268.815,167.333 268.743,168.500 268.577,169.000 C 268.412,169.500 268.096,169.500 267.926,170.000 C 267.756,170.500 267.731,171.500 267.559,172.000 C 267.386,172.500 267.063,172.500 266.892,173.000 C 266.720,173.500 266.700,174.500 266.531,175.000 C 266.363,175.500 266.056,175.500 265.880,176.000 C 265.704,176.500 265.645,177.500 265.474,178.000 C 265.303,178.500 265.046,178.500 264.854,179.000 C 264.661,179.500 264.486,180.500 264.318,181.000 C 264.150,181.500 264.013,181.500 263.846,182.000 C 263.679,182.500 263.486,183.500 263.318,184.000 C 263.150,184.500 263.059,184.500 262.840,185.000 C 262.620,185.500 262.199,186.333 262.000,187.000 C 261.801,187.667 261.818,188.500 261.643,189.000 C 261.467,189.500 261.123,189.500 260.948,190.000 C 260.772,190.500 260.764,191.500 260.589,192.000 C 260.414,192.500 260.077,192.500 259.895,193.000 C 259.714,193.500 259.670,194.500 259.500,195.000 C 259.330,195.500 259.111,195.500 258.876,196.000 C 258.641,196.500 258.264,197.500 258.091,198.000 C 257.918,198.500 258.003,198.500 257.840,199.000 C 257.678,199.500 257.285,200.500 257.118,201.000 C 256.950,201.500 257.023,201.500 256.837,202.000 C 256.651,202.500 256.194,203.333 256.000,204.000 C 255.806,204.667 255.848,205.500 255.670,206.000 C 255.493,206.500 255.117,206.500 254.935,207.000 C 254.753,207.500 254.751,208.500 254.577,209.000 C 254.404,209.500 254.073,209.500 253.894,210.000 C 253.714,210.500 253.674,211.500 253.500,212.000 C 253.326,212.500 253.040,212.500 252.852,213.000 C 252.665,213.500 252.545,214.500 252.375,215.000 C 252.205,215.500 252.063,215.502 251.834,216.000 C 251.605,216.498 251.170,217.486 251.000,217.986 C 250.830,218.486 250.981,218.530 250.815,219.000 C 250.648,219.470 250.168,220.306 250.000,220.806 C 249.832,221.306 249.974,221.520 249.808,222.000 C 249.641,222.480 249.173,223.188 249.000,223.688 C 248.827,224.188 248.936,224.564 248.769,225.000 C 248.603,225.436 248.171,225.802 248.000,226.302 C 247.829,226.802 247.908,227.523 247.741,228.000 C 247.575,228.477 247.178,228.667 247.000,229.167 C 246.822,229.667 246.847,230.528 246.674,231.000 C 246.501,231.472 246.140,231.500 245.962,232.000 C 245.784,232.500 245.779,233.500 245.605,234.000 C 245.432,234.500 245.108,234.500 244.920,235.000 C 244.731,235.500 244.649,236.500 244.474,237.000 C 244.298,237.500 244.062,237.500 243.867,238.000 C 243.672,238.500 243.475,239.500 243.302,240.000 C 243.130,240.500 243.049,240.508 242.832,241.000 C 242.615,241.492 242.170,242.453 242.000,242.953 C 241.830,243.453 241.981,243.514 241.815,244.000 C 241.648,244.486 241.165,245.371 241.000,245.871 C 240.835,246.371 240.990,246.523 240.824,247.000 C 240.657,247.477 240.171,248.234 240.000,248.734 C 239.829,249.234 239.963,249.536 239.796,250.000 C 239.629,250.464 239.169,251.017 239.000,251.517 C 238.831,252.017 238.946,252.517 238.779,253.000 C 238.613,253.483 238.175,253.912 238.000,254.412 C 237.825,254.912 237.900,255.569 237.732,256.000 C 237.565,256.431 237.172,256.500 236.995,257.000 C 236.819,257.500 236.853,258.500 236.674,259.000 C 236.495,259.500 235.952,259.667 235.921,260.000 C 235.889,260.333 236.303,260.625 236.483,261.000 C 236.663,261.375 236.747,261.797 237.000,262.252 C 237.253,262.707 237.693,263.274 238.000,263.732 C 238.307,264.190 238.557,264.622 238.842,265.000 C 239.127,265.378 239.519,265.664 239.712,266.000 C 239.905,266.336 239.785,266.629 240.000,267.013 C 240.215,267.397 240.667,267.837 241.000,268.303 C 241.333,268.769 241.693,269.361 242.000,269.811 C 242.307,270.260 242.557,270.635 242.843,271.000 C 243.129,271.365 243.489,271.667 243.717,272.000 C 243.945,272.333 243.997,272.628 244.211,273.000 C 244.424,273.372 244.702,273.818 245.000,274.229 C 245.298,274.640 245.683,275.007 246.000,275.469 C 246.317,275.931 246.600,276.578 246.900,277.000 C 247.201,277.422 247.508,277.667 247.803,278.000 C 248.097,278.333 248.429,278.667 248.667,279.000 C 248.905,279.333 249.009,279.647 249.231,280.000 C 249.453,280.353 249.705,280.741 250.000,281.115 C 250.295,281.489 250.667,281.861 251.000,282.242 C 251.333,282.623 251.667,282.985 252.000,283.400 C 252.333,283.815 252.683,284.298 253.000,284.732 C 253.317,285.165 253.595,285.622 253.903,286.000 C 254.212,286.378 254.533,286.667 254.853,287.000 C 255.172,287.333 255.502,287.667 255.822,288.000 C 256.143,288.333 256.457,288.667 256.776,289.000 C 257.095,289.333 257.419,289.667 257.735,290.000 C 258.050,290.333 258.348,290.667 258.667,291.000 C 258.985,291.333 259.320,291.667 259.647,292.000 C 259.974,292.333 260.302,292.667 260.630,293.000 C 260.958,293.333 261.283,293.667 261.615,294.000 C 261.948,294.333 262.275,294.667 262.625,295.000 C 262.975,295.333 263.366,295.667 263.714,296.000 C 264.063,296.333 264.379,296.667 264.717,297.000 C 265.055,297.333 265.397,297.667 265.741,298.000 C 266.086,298.333 266.430,298.667 266.783,299.000 C 267.135,299.333 267.498,299.667 267.858,300.000 C 268.218,300.333 268.587,300.741 268.944,301.000 C 269.301,301.259 269.657,301.333 270.000,301.556 C 270.343,301.778 270.667,302.063 271.000,302.337 C 271.333,302.611 271.667,302.897 272.000,303.199 C 272.333,303.501 272.632,303.848 273.000,304.149 C 273.368,304.449 273.758,304.691 274.211,305.000 C 274.663,305.309 275.259,305.667 275.717,306.000 C 276.175,306.333 276.581,306.783 276.961,307.000 C 277.342,307.217 277.660,307.107 278.000,307.300 C 278.340,307.493 278.609,307.875 279.000,308.159 C 279.391,308.442 279.891,308.693 280.348,309.000 C 280.805,309.307 281.302,309.747 281.744,310.000 C 282.186,310.253 282.624,310.321 283.000,310.517 C 283.376,310.714 283.652,310.933 284.000,311.180 C 284.348,311.427 284.615,311.697 285.091,312.000 C 285.567,312.303 286.374,312.789 286.858,313.000 C 287.343,313.211 287.643,313.085 288.000,313.265 C 288.357,313.446 288.533,313.795 289.000,314.084 C 289.467,314.373 290.300,314.803 290.800,315.000 C 291.300,315.197 291.633,315.088 292.000,315.268 C 292.367,315.448 292.500,315.829 293.000,316.079 C 293.500,316.330 294.500,316.587 295.000,316.769 C 295.500,316.951 295.555,316.965 296.000,317.170 C 296.445,317.376 297.171,317.825 297.671,318.000 C 298.171,318.175 298.564,318.052 299.000,318.219 C 299.436,318.386 299.786,318.829 300.286,319.000 C 300.786,319.171 301.463,319.079 302.000,319.246 C 302.537,319.413 303.010,319.841 303.510,320.000 C 304.010,320.159 304.418,320.064 305.000,320.199 C 305.582,320.334 306.500,320.652 307.000,320.811 C 307.500,320.970 307.500,321.070 308.000,321.152 C 308.500,321.235 309.363,321.165 310.000,321.306 C 310.637,321.447 311.321,321.862 311.821,322.000 C 312.321,322.138 312.470,322.096 313.000,322.131 C 313.530,322.167 314.333,322.161 315.000,322.213 C 315.667,322.264 316.333,322.355 317.000,322.441 C 317.667,322.528 318.462,322.639 319.000,322.732 C 319.538,322.825 319.731,322.936 320.231,323.000 C 320.731,323.064 321.372,323.092 322.000,323.117 C 322.628,323.141 323.333,323.145 324.000,323.149 C 324.667,323.154 325.333,323.149 326.000,323.144 C 326.667,323.140 327.333,323.139 328.000,323.123 C 328.667,323.107 329.500,323.096 330.000,323.048 C 330.500,323.000 330.500,322.931 331.000,322.833 C 331.500,322.736 332.333,322.559 333.000,322.462 C 333.667,322.364 334.333,322.298 335.000,322.246 C 335.667,322.194 336.364,322.191 337.000,322.150 C 337.636,322.109 338.315,322.123 338.815,322.000 C 339.315,321.877 339.469,321.546 340.000,321.411 C 340.531,321.276 341.333,321.248 342.000,321.189 C 342.667,321.130 343.500,321.188 344.000,321.057 C 344.500,320.925 344.500,320.546 345.000,320.400 C 345.500,320.254 346.403,320.247 347.000,320.181 C 347.597,320.114 348.081,320.146 348.581,320.000 C 349.081,319.854 349.430,319.455 350.000,319.303 C 350.570,319.151 351.500,319.206 352.000,319.087 C 352.500,318.967 352.500,318.742 353.000,318.588 C 353.500,318.435 354.463,318.263 355.000,318.165 C 355.537,318.067 355.721,318.168 356.221,318.000 C 356.721,317.832 357.485,317.325 358.000,317.158 C 358.515,316.991 358.813,317.162 359.313,317.000 C 359.813,316.838 360.535,316.352 361.000,316.185 C 361.465,316.019 361.604,316.153 362.104,316.000 C 362.604,315.847 363.684,315.133 364.000,315.269 C 364.316,315.404 364.167,316.412 364.000,316.814 C 363.833,317.217 363.368,317.487 363.000,317.684 C 362.632,317.882 362.290,317.795 361.790,318.000 C 361.290,318.205 360.465,318.631 360.000,318.913 C 359.535,319.194 359.384,319.506 359.000,319.688 C 358.616,319.869 358.197,319.795 357.697,320.000 C 357.197,320.205 356.449,320.636 356.000,320.918 C 355.551,321.200 355.381,321.509 355.000,321.690 C 354.619,321.870 354.211,321.804 353.711,322.000 C 353.211,322.196 352.452,322.641 352.000,322.866 C 351.548,323.092 351.500,323.170 351.000,323.353 C 350.500,323.536 349.500,323.749 349.000,323.965 C 348.500,324.181 348.429,324.475 348.000,324.648 C 347.571,324.820 346.929,324.818 346.429,325.000 C 345.929,325.182 345.483,325.571 345.000,325.738 C 344.517,325.905 344.029,325.825 343.529,326.000 C 343.029,326.175 342.511,326.622 342.000,326.789 C 341.489,326.956 340.964,326.846 340.464,327.000 C 339.964,327.154 339.544,327.544 339.000,327.711 C 338.456,327.878 337.700,327.843 337.200,328.000 C 336.700,328.157 336.533,328.501 336.000,328.652 C 335.467,328.802 334.500,328.793 334.000,328.902 C 333.500,329.011 333.500,329.152 333.000,329.308 C 332.500,329.464 331.600,329.724 331.000,329.839 C 330.400,329.954 329.900,329.887 329.400,330.000 C 328.900,330.113 328.567,330.382 328.000,330.519 C 327.433,330.655 326.667,330.738 326.000,330.817 C 325.333,330.897 324.500,330.899 324.000,330.994 C 323.500,331.090 323.500,331.260 323.000,331.390 C 322.500,331.521 321.667,331.695 321.000,331.778 C 320.333,331.860 319.667,331.851 319.000,331.885 C 318.333,331.919 317.500,331.948 317.000,331.981 C 316.500,332.015 316.167,332.069 316.000,332.087 C 315.833,332.105 316.333,332.007 316.000,332.087 Z M 147.000,248.353 C 146.762,248.340 146.484,248.147 146.000,247.922 C 145.516,247.696 144.598,247.205 144.098,247.000 C 143.598,246.795 143.350,246.862 143.000,246.690 C 142.650,246.517 142.459,246.245 142.000,245.964 C 141.541,245.682 140.744,245.239 140.244,245.000 C 139.744,244.761 139.374,244.733 139.000,244.531 C 138.626,244.329 138.333,244.051 138.000,243.787 C 137.667,243.522 137.361,243.243 137.000,242.946 C 136.639,242.648 136.286,242.324 135.833,242.000 C 135.381,241.676 134.738,241.333 134.283,241.000 C 133.828,240.667 133.482,240.333 133.103,240.000 C 132.724,239.667 132.359,239.244 132.009,239.000 C 131.658,238.756 131.335,238.770 131.000,238.538 C 130.665,238.307 130.333,237.933 130.000,237.611 C 129.667,237.289 129.333,236.922 129.000,236.605 C 128.667,236.289 128.333,236.011 128.000,235.711 C 127.667,235.412 127.333,235.166 127.000,234.809 C 126.667,234.451 126.333,233.925 126.000,233.564 C 125.667,233.204 125.333,232.996 125.000,232.645 C 124.667,232.295 124.332,231.902 124.000,231.462 C 123.668,231.021 123.327,230.410 123.007,230.000 C 122.687,229.590 122.369,229.333 122.081,229.000 C 121.793,228.667 121.571,228.333 121.277,228.000 C 120.983,227.667 120.530,227.337 120.317,227.000 C 120.104,226.663 120.220,226.346 120.000,225.980 C 119.780,225.614 119.333,225.256 119.000,224.803 C 118.667,224.350 118.314,223.728 118.000,223.261 C 117.686,222.794 117.404,222.377 117.115,222.000 C 116.827,221.623 116.457,221.341 116.271,221.000 C 116.085,220.659 116.212,220.448 116.000,219.955 C 115.788,219.461 115.310,218.532 115.000,218.040 C 114.690,217.548 114.391,217.340 114.143,217.000 C 113.895,216.660 113.703,216.438 113.512,216.000 C 113.322,215.562 113.219,214.875 113.000,214.375 C 112.781,213.875 112.386,213.396 112.195,213.000 C 112.005,212.604 112.055,212.500 111.857,212.000 C 111.659,211.500 111.267,210.500 111.006,210.000 C 110.744,209.500 110.453,209.384 110.286,209.000 C 110.118,208.616 110.189,208.194 110.000,207.694 C 109.811,207.194 109.390,206.449 109.152,206.000 C 108.915,205.551 108.752,205.500 108.575,205.000 C 108.398,204.500 108.253,203.500 108.091,203.000 C 107.928,202.500 107.759,202.500 107.600,202.000 C 107.441,201.500 107.282,200.500 107.139,200.000 C 106.997,199.500 106.902,199.500 106.743,199.000 C 106.583,198.500 106.402,197.667 106.183,197.000 C 105.964,196.333 105.610,195.667 105.429,195.000 C 105.247,194.333 105.231,193.500 105.092,193.000 C 104.953,192.500 104.740,192.500 104.595,192.000 C 104.450,191.500 104.321,190.667 104.222,190.000 C 104.124,189.333 104.139,188.500 104.005,188.000 C 103.871,187.500 103.551,187.500 103.417,187.000 C 103.282,186.500 103.260,185.667 103.197,185.000 C 103.134,184.333 103.113,183.500 103.039,183.000 C 102.964,182.500 102.877,182.500 102.750,182.000 C 102.623,181.500 102.374,180.667 102.278,180.000 C 102.182,179.333 102.206,178.667 102.175,178.000 C 102.145,177.333 102.124,176.576 102.095,176.000 C 102.065,175.424 102.095,175.045 102.000,174.545 C 101.905,174.045 101.632,173.591 101.526,173.000 C 101.421,172.409 101.379,171.667 101.366,171.000 C 101.353,170.333 101.362,169.667 101.448,169.000 C 101.534,168.333 101.768,167.333 101.882,167.000 C 101.997,166.667 101.990,166.667 102.133,167.000 C 102.276,167.333 102.576,168.500 102.740,169.000 C 102.904,169.500 102.949,169.500 103.118,170.000 C 103.286,170.500 103.633,171.333 103.752,172.000 C 103.871,172.667 103.790,173.454 103.831,174.000 C 103.873,174.546 103.851,174.777 104.000,175.277 C 104.149,175.777 104.582,176.379 104.725,177.000 C 104.868,177.621 104.811,178.475 104.856,179.000 C 104.902,179.525 104.849,179.649 105.000,180.149 C 105.151,180.649 105.607,181.358 105.762,182.000 C 105.917,182.642 105.805,183.500 105.929,184.000 C 106.054,184.500 106.354,184.500 106.508,185.000 C 106.662,185.500 106.738,186.500 106.851,187.000 C 106.965,187.500 107.025,187.500 107.189,188.000 C 107.354,188.500 107.684,189.500 107.839,190.000 C 107.993,190.500 107.949,190.500 108.118,191.000 C 108.286,191.500 108.626,192.500 108.851,193.000 C 109.075,193.500 109.287,193.500 109.464,194.000 C 109.642,194.500 109.719,195.500 109.914,196.000 C 110.110,196.500 110.458,196.572 110.639,197.000 C 110.820,197.428 110.804,198.066 111.000,198.566 C 111.196,199.066 111.586,199.594 111.817,200.000 C 112.048,200.406 112.191,200.532 112.388,201.000 C 112.585,201.468 112.764,202.311 113.000,202.811 C 113.236,203.311 113.581,203.635 113.805,204.000 C 114.030,204.365 114.149,204.601 114.348,205.000 C 114.547,205.399 114.748,205.895 115.000,206.395 C 115.252,206.895 115.568,207.566 115.857,208.000 C 116.147,208.434 116.541,208.667 116.737,209.000 C 116.933,209.333 116.822,209.618 117.032,210.000 C 117.243,210.382 117.672,210.833 118.000,211.291 C 118.328,211.750 118.689,212.299 119.000,212.750 C 119.311,213.201 119.568,213.625 119.869,214.000 C 120.169,214.375 120.500,214.667 120.801,215.000 C 121.103,215.333 121.427,215.667 121.677,216.000 C 121.928,216.333 122.082,216.652 122.302,217.000 C 122.523,217.348 122.717,217.722 123.000,218.088 C 123.283,218.453 123.667,218.839 124.000,219.192 C 124.333,219.546 124.667,219.867 125.000,220.208 C 125.333,220.550 125.667,220.904 126.000,221.240 C 126.333,221.576 126.667,221.902 127.000,222.227 C 127.333,222.553 127.667,222.870 128.000,223.194 C 128.333,223.517 128.667,223.848 129.000,224.167 C 129.333,224.486 129.652,224.803 130.000,225.108 C 130.348,225.414 130.650,225.685 131.091,226.000 C 131.531,226.315 132.196,226.667 132.643,227.000 C 133.090,227.333 133.378,227.727 133.771,228.000 C 134.164,228.273 134.628,228.431 135.000,228.638 C 135.372,228.846 135.667,228.997 136.000,229.246 C 136.333,229.495 136.586,229.838 137.000,230.130 C 137.414,230.423 137.983,230.727 138.483,231.000 C 138.983,231.273 139.580,231.567 140.000,231.769 C 140.420,231.971 140.619,232.006 141.000,232.211 C 141.381,232.416 141.786,232.787 142.286,233.000 C 142.786,233.213 143.548,233.302 144.000,233.492 C 144.452,233.682 144.500,233.962 145.000,234.139 C 145.500,234.317 146.500,234.333 147.000,234.556 C 147.500,234.778 147.732,235.069 148.000,235.476 C 148.268,235.884 148.506,236.413 148.605,237.000 C 148.704,237.587 148.606,238.333 148.595,239.000 C 148.583,239.667 148.539,240.333 148.538,241.000 C 148.538,241.667 148.584,242.333 148.589,243.000 C 148.595,243.667 148.581,244.333 148.571,245.000 C 148.562,245.667 148.722,246.500 148.531,247.000 C 148.341,247.500 147.684,247.775 147.429,248.000 C 147.173,248.225 147.238,248.366 147.000,248.353 Z M 176.000,252.138 C 175.667,252.192 174.667,252.392 174.000,252.465 C 173.333,252.539 172.667,252.549 172.000,252.579 C 171.333,252.609 170.667,252.641 170.000,252.644 C 169.333,252.648 168.667,252.638 168.000,252.600 C 167.333,252.562 166.516,252.515 166.000,252.415 C 165.484,252.315 165.201,252.402 164.905,252.000 C 164.609,251.598 164.341,250.667 164.224,250.000 C 164.107,249.333 164.206,248.667 164.203,248.000 C 164.200,247.333 164.206,246.667 164.206,246.000 C 164.205,245.333 164.199,244.667 164.200,244.000 C 164.201,243.333 164.199,242.667 164.209,242.000 C 164.220,241.333 164.118,240.500 164.263,240.000 C 164.408,239.500 164.622,239.292 165.078,239.000 C 165.534,238.708 166.346,238.365 167.000,238.250 C 167.654,238.135 168.333,238.309 169.000,238.309 C 169.667,238.310 170.333,238.273 171.000,238.252 C 171.667,238.231 172.333,238.207 173.000,238.182 C 173.667,238.157 174.500,238.152 175.000,238.102 C 175.500,238.052 175.500,238.027 176.000,237.882 C 176.500,237.738 177.333,237.374 178.000,237.236 C 178.667,237.098 179.500,237.173 180.000,237.056 C 180.500,236.939 180.500,236.688 181.000,236.536 C 181.500,236.383 182.500,236.272 183.000,236.142 C 183.500,236.011 183.500,235.914 184.000,235.750 C 184.500,235.586 185.500,235.365 186.000,235.156 C 186.500,234.948 186.520,234.693 187.000,234.500 C 187.480,234.307 188.382,234.220 188.882,234.000 C 189.382,233.780 189.539,233.182 190.000,233.182 C 190.461,233.182 191.318,233.635 191.651,234.000 C 191.984,234.365 191.805,234.870 192.000,235.370 C 192.195,235.870 192.639,236.562 192.820,237.000 C 193.002,237.438 192.895,237.500 193.091,238.000 C 193.287,238.500 193.717,239.500 193.995,240.000 C 194.273,240.500 194.591,240.634 194.758,241.000 C 194.926,241.366 194.818,241.696 195.000,242.196 C 195.182,242.696 195.599,243.533 195.849,244.000 C 196.099,244.467 196.406,244.500 196.500,245.000 C 196.594,245.500 196.662,246.523 196.412,247.000 C 196.162,247.477 195.402,247.619 195.000,247.863 C 194.598,248.106 194.500,248.283 194.000,248.463 C 193.500,248.644 192.500,248.769 192.000,248.944 C 191.500,249.118 191.500,249.348 191.000,249.509 C 190.500,249.671 189.500,249.793 189.000,249.910 C 188.500,250.027 188.500,250.064 188.000,250.212 C 187.500,250.360 186.667,250.678 186.000,250.800 C 185.333,250.922 184.500,250.853 184.000,250.946 C 183.500,251.039 183.500,251.223 183.000,251.357 C 182.500,251.492 181.667,251.668 181.000,251.753 C 180.333,251.839 179.667,251.831 179.000,251.871 C 178.333,251.910 177.500,251.943 177.000,251.988 C 176.500,252.032 176.167,252.113 176.000,252.138 C 175.833,252.163 176.333,252.083 176.000,252.138 Z"/>
</svg>